<svg xmlns="http://www.w3.org/2000/svg"><symbol id="power" viewBox="0 0 511.996 511.996"><path d="M349.85 62.196c-10.797-4.717-23.373.212-28.09 11.009-4.717 10.797.212 23.373 11.009 28.09 69.412 30.324 115.228 98.977 115.228 176.035 0 106.034-85.972 192-192 192-106.042 0-192-85.958-192-192 0-77.041 45.8-145.694 115.192-176.038 10.795-4.72 15.72-17.298 10.999-28.093-4.72-10.795-17.298-15.72-28.093-10.999C77.306 99.275 21.331 183.181 21.331 277.329c0 129.606 105.061 234.667 234.667 234.667 129.592 0 234.667-105.068 234.667-234.667 0-94.17-55.998-178.08-140.815-215.133z"/><path d="M255.989 234.667c11.782 0 21.333-9.551 21.333-21.333v-192C277.323 9.551 267.771 0 255.989 0c-11.782 0-21.333 9.551-21.333 21.333v192c0 11.782 9.551 21.334 21.333 21.334z"/></symbol></svg>